<svg width="272" height="272" xmlns="http://www.w3.org/2000/svg" xmlns:xlink="http://www.w3.org/1999/xlink" xml:space="preserve" overflow="hidden"><g transform="translate(-722 -643)"><path d="M846.667 767.95C840.717 773.9 836.183 780.417 833.35 786.65 812.383 761.717 799.067 739.617 798.783 728 799.917 726.583 801.333 725.167 802.75 723.75 804.167 722.333 805.583 721.2 807 719.783 818.333 720.35 840.433 733.383 865.65 754.633 859.133 757.467 852.617 762 846.667 767.95ZM801.333 818.667C794.817 821.5 788.583 826.033 782.633 831.983 782.35 832.267 782.35 832.267 782.067 832.55 768.467 804.217 770.733 769.65 788.3 741.6 780.65 763.7 785.75 792.033 801.333 818.667L801.333 818.667ZM911.55 703.067C911.267 703.35 911.267 703.35 910.983 703.633 905.033 709.583 900.5 716.1 897.667 722.333L897.667 722.333C871.033 706.75 842.417 701.65 820.6 709.3 848.65 691.733 883.217 689.467 911.55 703.067ZM951.783 860.883 866.783 775.883C866.217 775.317 865.65 775.033 865.083 774.467 870.183 770.783 875.283 768.517 878.967 768.233 879.25 762.567 883.783 754.917 890.583 747.833 897.667 740.75 905.317 736.5 910.983 736.217 911.267 730.55 915.8 722.9 922.6 715.817 929.4 709.017 937.333 704.767 942.717 704.2 903.05 668.217 841.567 668.783 798.5 704.2 794.25 701.367 788.3 701.933 784.333 705.617 780.65 709.3 780.083 715.25 782.917 719.783 747.5 762.85 746.933 824.333 782.917 864.283 783.483 858.617 787.733 850.967 794.533 844.167 801.617 837.083 809.267 832.833 814.933 832.55 815.217 826.883 819.75 819.233 826.55 812.15 833.633 805.067 841.283 800.817 846.95 800.533 847.233 796.567 849.5 791.467 853.467 786.083 853.75 786.65 854.317 787.217 854.883 787.783L939.883 872.783C941.583 874.483 943.85 875.333 945.833 875.333 947.817 875.333 950.083 874.483 951.783 872.783 955.183 869.667 955.183 864 951.783 860.883Z"/></g></svg>